<svg width="33" height="34" viewBox="0 0 33 34" fill="none" xmlns="http://www.w3.org/2000/svg">
<path d="M32.0333 1.00992C31.8202 0.796825 31.4758 0.796825 31.2627 1.00992L29.2424 3.03019H16.5534L0.602094 19.1134C0.238586 19.4764 0.0385742 19.9592 0.0385742 20.4731C0.0385742 20.9871 0.238586 21.4699 0.602094 21.8329L11.7559 32.9867C12.1188 33.3496 12.6017 33.5496 13.1156 33.5496C13.629 33.5496 14.1119 33.3496 14.4803 32.9812L30.013 17.0294V3.80081L32.0333 1.78053C32.2464 1.56744 32.2464 1.22301 32.0333 1.00992ZM24.0181 11.75C22.5156 11.75 21.2932 10.5276 21.2932 9.02508C21.2932 7.52255 22.5156 6.30013 24.0181 6.30013C25.5207 6.30013 26.7431 7.52255 26.7431 9.02508C26.7431 10.5276 25.5207 11.75 24.0181 11.75Z" fill="#17C7FF"/>
</svg>
